<?xml version="1.0" encoding="UTF-8" standalone="no"?>
<svg
   width="300"
   height="300"
   viewBox="0 0 300 300"
   fill="none"
   version="1.1"
   id="svg2"
   sodipodi:docname="battery_scale_14.svg"
   inkscape:version="1.3.2 (091e20e, 2023-11-25, custom)"
   xmlns:inkscape="http://www.inkscape.org/namespaces/inkscape"
   xmlns:sodipodi="http://sodipodi.sourceforge.net/DTD/sodipodi-0.dtd"
   xmlns="http://www.w3.org/2000/svg"
   xmlns:svg="http://www.w3.org/2000/svg">
  <defs
     id="defs2" />
  <sodipodi:namedview
     id="namedview2"
     pagecolor="#ffffff"
     bordercolor="#000000"
     borderopacity="0.25"
     inkscape:showpageshadow="2"
     inkscape:pageopacity="0.0"
     inkscape:pagecheckerboard="0"
     inkscape:deskcolor="#d1d1d1"
     inkscape:zoom="2.71"
     inkscape:cx="149.8155"
     inkscape:cy="150"
     inkscape:window-width="1920"
     inkscape:window-height="1009"
     inkscape:window-x="-8"
     inkscape:window-y="-8"
     inkscape:window-maximized="1"
     inkscape:current-layer="svg2" />
  <rect
     width="300"
     height="300"
     fill="black"
     id="rect1" />
  <circle
     cx="150"
     cy="150"
     r="150"
     fill="#181818"
     id="circle1" />
  <path
     d="M150 20C150 8.9543 158.994 -0.137109 169.941 1.33134C190.581 4.09984 210.494 11.1469 228.375 22.104C251.962 36.558 271.092 57.2532 283.651 81.9014C296.21 106.55 301.708 134.191 299.538 161.769C297.367 189.347 287.613 215.788 271.353 238.168C255.092 260.548 232.96 277.996 207.403 288.582C181.845 299.168 153.858 302.481 126.535 298.153C99.2121 293.826 73.6182 282.027 52.5828 264.061C36.6366 250.442 23.781 233.681 14.7699 214.906C9.99029 204.948 15.8576 193.586 26.3627 190.172L136.18 154.49C144.421 151.813 150 144.134 150 135.469L150 20Z"
     fill="#167c80"
     id="path1" />
  <circle
     cx="150"
     cy="150"
     r="128"
     fill="black"
     id="circle2" />
  <path
     d="M162.73 230.297L149.298 254.672C149.006 255.202 148.199 254.959 148.247 254.357L149.72 236.199L137.762 236.199C137.336 236.199 137.064 235.742 137.27 235.367L150.703 210.992C150.995 210.462 151.802 210.705 151.753 211.307L150.281 229.465L162.238 229.465C162.665 229.465 162.935 229.922 162.73 230.297Z"
     fill="white"
     id="path2" />
  <path
     id="path3"
     style="fill:#2196f3;stroke-width:0.369004"
     d="M 163.43555 1.6601562 L 160.63086 3.0449219 C 154.51343 6.0655369 150.89488 11.681959 150.21289 19.212891 L 149.99219 21.636719 L 157.09961 22.074219 C 170.38588 22.89234 182.59972 25.374425 194.00781 29.572266 C 221.0858 39.536166 244.56576 58.792608 259.41211 83.210938 C 267.02574 95.733353 272.85225 110.60214 275.60547 124.53906 C 277.60771 134.67444 277.8457 137.3827 277.8457 150 C 277.8457 162.6173 277.60771 165.32556 275.60547 175.46094 C 271.71661 195.14648 262.75428 214.21807 249.68164 230.62695 C 245.88599 235.39128 235.21921 246.01481 230.25781 249.97266 C 216.95336 260.586 201.04562 268.81904 185.3457 273.2168 C 144.85771 284.55802 102.39155 276.01756 69.742188 249.9668 C 64.680404 245.92803 54.417065 235.70856 50.505859 230.8125 C 41.628485 219.69979 34.739471 207.67774 29.957031 194.95508 L 27.990234 189.72656 L 25.929688 190.56445 C 17.173561 194.1232 12.383749 201.6076 13.513672 209.96289 C 13.909712 212.89143 16.839995 219.11351 21.492188 226.90234 C 40.856228 259.32214 72.061701 283.3467 108.54492 293.92383 C 117.51501 296.52441 126.80954 298.23101 138.37695 299.40039 C 139.18876 299.48239 145.24977 299.50091 151.8457 299.44141 C 164.95414 299.32315 169.38187 298.89842 180.09766 296.72852 C 218.4678 288.95868 252.71876 265.8759 274.625 233.02539 C 298.27304 197.56288 305.66928 153.79988 294.98828 112.54688 C 281.68261 61.156578 242.50204 20.875864 191.41406 6.0644531 C 181.85608 3.2934074 173.52966 1.7356065 168.06445 1.6953125 L 163.43555 1.6601562 z " />
</svg>
