<?xml version="1.0" encoding="UTF-8" standalone="no"?>
<svg
   width="300"
   height="300"
   viewBox="0 0 300 300"
   fill="none"
   version="1.1"
   id="svg2"
   sodipodi:docname="battery_scale_05.svg"
   inkscape:version="1.3.2 (091e20e, 2023-11-25, custom)"
   xmlns:inkscape="http://www.inkscape.org/namespaces/inkscape"
   xmlns:sodipodi="http://sodipodi.sourceforge.net/DTD/sodipodi-0.dtd"
   xmlns="http://www.w3.org/2000/svg"
   xmlns:svg="http://www.w3.org/2000/svg">
  <defs
     id="defs2" />
  <sodipodi:namedview
     id="namedview2"
     pagecolor="#ffffff"
     bordercolor="#000000"
     borderopacity="0.25"
     inkscape:showpageshadow="2"
     inkscape:pageopacity="0.0"
     inkscape:pagecheckerboard="0"
     inkscape:deskcolor="#d1d1d1"
     inkscape:zoom="2.71"
     inkscape:cx="149.8155"
     inkscape:cy="150"
     inkscape:window-width="1920"
     inkscape:window-height="1009"
     inkscape:window-x="-8"
     inkscape:window-y="-8"
     inkscape:window-maximized="1"
     inkscape:current-layer="svg2" />
  <rect
     width="300"
     height="300"
     fill="black"
     id="rect1" />
  <circle
     cx="150"
     cy="150"
     r="150"
     fill="#181818"
     id="circle1" />
  <path
     d="M150 20C150 8.9543 158.993 -0.137047 169.941 1.33137C182.784 3.05407 195.379 6.4376 207.403 11.4181C225.601 18.9563 242.137 30.0052 256.066 43.934C269.995 57.8628 281.044 74.3987 288.582 92.5975C293.562 104.621 296.946 117.216 298.669 130.059C300.137 141.007 291.046 150 280 150L170 150C158.954 150 150 141.046 150 130L150 20Z"
     fill="#167c80"
     id="path1" />
  <circle
     cx="150"
     cy="150"
     r="128"
     fill="black"
     id="circle2" />
  <path
     d="M162.73 230.297L149.298 254.672C149.006 255.202 148.199 254.959 148.247 254.357L149.72 236.199L137.762 236.199C137.336 236.199 137.064 235.742 137.27 235.367L150.703 210.992C150.995 210.462 151.802 210.705 151.753 211.307L150.281 229.465L162.238 229.465C162.665 229.465 162.935 229.922 162.73 230.297Z"
     fill="white"
     id="path2" />
  <path
     style="fill:#2196f3;stroke-width:0.369004"
     d="M 277.92354,143.6853 C 277.12677,122.96154 270.58291,101.58349 259.41203,83.210332 244.56567,58.791978 221.08547,39.535823 194.00746,29.571913 182.59936,25.374068 170.38617,22.893304 157.09989,22.075182 l -7.10675,-0.437607 0.21951,-2.423954 c 0.68085,-7.518375 4.28344,-13.1375483 10.34275,-16.1322235 4.53958,-2.24358016 8.30416,-2.16047987 20.65808,0.4560112 23.70314,5.0201928 45.56652,15.6131163 64.60835,31.3030803 2.19652,1.809871 6.82085,6.127216 10.27629,9.594098 22.26349,22.337192 36.60215,50.353668 41.74669,81.569353 0.91876,5.57479 0.96898,6.36134 0.55883,8.75312 -1.44021,8.39865 -8.24208,14.28894 -17.25566,14.94306 l -2.98487,0.21661 z"
     id="path3" />
</svg>
