<?xml version="1.0" encoding="UTF-8" standalone="no"?>
<svg
   width="300"
   height="300"
   viewBox="0 0 300 300"
   fill="none"
   version="1.1"
   id="svg2"
   sodipodi:docname="battery_fail.svg"
   inkscape:version="1.3.2 (091e20e, 2023-11-25, custom)"
   xmlns:inkscape="http://www.inkscape.org/namespaces/inkscape"
   xmlns:sodipodi="http://sodipodi.sourceforge.net/DTD/sodipodi-0.dtd"
   xmlns="http://www.w3.org/2000/svg"
   xmlns:svg="http://www.w3.org/2000/svg">
  <defs
     id="defs2" />
  <sodipodi:namedview
     id="namedview2"
     pagecolor="#ffffff"
     bordercolor="#000000"
     borderopacity="0.25"
     inkscape:showpageshadow="2"
     inkscape:pageopacity="0.0"
     inkscape:pagecheckerboard="0"
     inkscape:deskcolor="#d1d1d1"
     inkscape:zoom="2.71"
     inkscape:cx="149.8155"
     inkscape:cy="149.631"
     inkscape:window-width="1920"
     inkscape:window-height="1009"
     inkscape:window-x="-8"
     inkscape:window-y="-8"
     inkscape:window-maximized="1"
     inkscape:current-layer="svg2" />
  <rect
     width="300"
     height="300"
     fill="black"
     id="rect1" />
  <path
     fill-rule="evenodd"
     clip-rule="evenodd"
     d="M0 150C0 232.843 67.1573 300 150 300C232.843 300 300 232.843 300 150C300 67.1573 232.843 0 150 0C67.1573 0 0 67.1573 0 150ZM150 0.000214268L169.738 31.6154L169.771 31.6209L198.705 8.12763L207.106 44.433L207.143 44.4527L242.132 31.6291L238.287 68.7251L238.288 68.7264L275.575 67.958L259.91 101.76L259.931 101.809L295.41 113.177L269.596 140.084L269.597 140.096L299.487 162.387L266.362 179.441L266.349 179.49L287.366 210.255L250.478 215.631L250.465 215.652L260.358 251.593L223.712 244.698L223.705 244.704L221.392 281.921L189.001 263.52L188.947 263.538L174.689 297.954L150 270L125.31 297.954L111.052 263.538L110.998 263.52L78.6075 281.921L76.2945 244.704L76.2875 244.698L39.6411 251.593L49.535 215.651L49.5221 215.631L12.6336 210.255L33.6504 179.49L33.6382 179.441L0.511969 162.387L30.4029 140.096L30.4038 140.085L4.58961 113.177L40.0687 101.809L40.09 101.76L24.4247 67.958L61.7121 68.7264L61.7127 68.7257L57.8678 31.6291L92.8571 44.4528L92.8929 44.4334L101.295 8.12763L130.229 31.621L130.262 31.6156L150 0.000214268Z"
     fill="#167c80"
     id="path1"
     style="fill:#ff6600" />
  <path
     d="M138.78 169.072Q138.78 159.656 141.117 154.063Q143.453 148.469 150.356 141.779Q157.259 135.088 159.1 132.256Q161.932 127.937 161.932 122.91Q161.932 116.255 158.64 112.75Q155.348 109.246 148.976 109.246Q142.887 109.246 139.17 112.679Q135.453 116.113 135.453 121.99L118.248 121.99Q118.39 109.458 126.78 102.166Q135.169 94.873 148.976 94.873Q163.207 94.873 171.172 102.095Q179.137 109.316 179.137 122.273Q179.137 133.813 168.375 145L159.667 153.567Q154.994 158.877 154.852 169.072Z M137.577 191.091Q137.577 186.914 140.196 184.33Q142.816 181.746 147.276 181.746Q151.808 181.746 154.427 184.401Q157.047 187.056 157.047 191.091Q157.047 194.985 154.498 197.605Q151.949 200.225 147.276 200.225Q142.604 200.225 140.09 197.605Q137.577 194.985 137.577 191.091Z"
     fill="white"
     id="path2" />
  <path
     id="path3"
     style="fill:#ff6600"
     d="M 295.43945 114.12891 C 295.27604 113.83692 290.7285 118.33509 282.75391 126.67188 C 275.91618 133.82013 270.3026 139.81047 270.2793 139.98438 C 270.25603 140.15828 276.76796 145.1732 284.75 151.12891 L 299.26172 161.95703 L 299.49219 159.48438 C 300.15331 152.40373 299.70654 139.18994 298.50195 130.25781 C 297.86274 125.51802 295.83327 114.83263 295.43945 114.12891 z " />
</svg>
