<?xml version="1.0" encoding="UTF-8" standalone="no"?>
<svg
   width="300"
   height="300"
   viewBox="0 0 300 300"
   fill="none"
   version="1.1"
   id="svg2"
   sodipodi:docname="battery_scale_19.svg"
   inkscape:version="1.3.2 (091e20e, 2023-11-25, custom)"
   xmlns:inkscape="http://www.inkscape.org/namespaces/inkscape"
   xmlns:sodipodi="http://sodipodi.sourceforge.net/DTD/sodipodi-0.dtd"
   xmlns="http://www.w3.org/2000/svg"
   xmlns:svg="http://www.w3.org/2000/svg">
  <defs
     id="defs2" />
  <sodipodi:namedview
     id="namedview2"
     pagecolor="#ffffff"
     bordercolor="#000000"
     borderopacity="0.25"
     inkscape:showpageshadow="2"
     inkscape:pageopacity="0.0"
     inkscape:pagecheckerboard="0"
     inkscape:deskcolor="#d1d1d1"
     inkscape:zoom="2.71"
     inkscape:cx="149.8155"
     inkscape:cy="150"
     inkscape:window-width="1920"
     inkscape:window-height="1009"
     inkscape:window-x="-8"
     inkscape:window-y="-8"
     inkscape:window-maximized="1"
     inkscape:current-layer="svg2" />
  <rect
     width="300"
     height="300"
     fill="black"
     id="rect1" />
  <circle
     cx="150"
     cy="150"
     r="150"
     fill="#181818"
     id="circle1" />
  <path
     d="M150 20C150 8.9543 158.994 -0.137312 169.942 1.33104C200.389 5.41475 229.026 18.7812 251.82 39.8516C279.537 65.4731 296.576 100.602 299.538 138.231C302.499 175.86 291.165 213.222 267.798 242.864C244.43 272.506 210.746 292.249 173.465 298.153C136.185 304.058 98.0484 295.691 66.6644 274.72C35.2804 253.75 12.9559 221.719 4.1445 185.017C-4.66693 148.314 0.682508 109.639 19.1256 76.7068C34.2927 49.6239 57.3981 28.0622 85.0931 14.7697C95.0512 9.99024 106.415 15.8576 109.828 26.3626L110.979 29.9051C118.017 51.5659 150 46.5002 150 23.7248L150 20Z"
     fill="#167c80"
     id="path1" />
  <circle
     cx="150"
     cy="150"
     r="128"
     fill="black"
     id="circle2" />
  <path
     d="M162.73 230.297L149.298 254.672C149.006 255.202 148.199 254.959 148.247 254.357L149.72 236.199L137.762 236.199C137.336 236.199 137.064 235.742 137.27 235.367L150.703 210.992C150.995 210.462 151.802 210.705 151.753 211.307L150.281 229.465L162.238 229.465C162.665 229.465 162.935 229.922 162.73 230.297Z"
     fill="white"
     id="path2" />
  <path
     id="path3"
     style="fill:#2196f3;stroke-width:0.369004;fill-opacity:1"
     d="M 168.3125 1.5175781 C 166.39264 1.4628574 164.83764 1.6526216 163.4043 2.0292969 L 163.09961 2.0292969 L 162.75977 2.2109375 C 162.01714 2.4452811 161.29238 2.7173112 160.57812 3.0703125 C 154.5162 6.0662796 150.89233 11.710126 150.21289 19.212891 L 149.99219 21.636719 L 157.09961 22.074219 C 170.38587 22.892339 182.59973 25.374429 194.00781 29.572266 C 221.08578 39.536156 244.56577 58.792632 259.41211 83.210938 C 267.02573 95.73334 272.85225 110.60216 275.60547 124.53906 C 277.60771 134.67443 277.8457 137.38271 277.8457 150 C 277.8457 162.61729 277.60771 165.32557 275.60547 175.46094 C 271.71661 195.14646 262.75427 214.21809 249.68164 230.62695 C 245.88599 235.39128 235.21921 246.01481 230.25781 249.97266 C 216.95338 260.58599 201.04561 268.81904 185.3457 273.2168 C 175.63287 275.93749 165.80697 277.48219 156.0293 277.94727 C 154.21045 277.98529 152.33561 278.01501 150 278.01562 C 147.79696 278.01617 146.06798 277.98554 144.32617 277.95312 C 117.44021 276.792 91.423969 267.26658 69.742188 249.9668 C 64.680409 245.92803 54.417061 235.70856 50.505859 230.8125 C 41.951633 220.1043 35.536952 209.10321 30.708984 196.86328 C 26.806963 186.97082 24.570015 178.30874 22.802734 166.23633 C 22.433092 163.71128 22.253627 158.92619 22.177734 153.84961 L 22.173828 150.18359 C 22.17195 147.84562 22.194788 146.32418 22.207031 144.54492 C 22.302987 140.11632 22.47292 136.01666 22.802734 133.76367 C 24.569556 121.6944 26.804504 113.03522 30.707031 103.13672 C 33.098624 97.070606 36.875535 89.375535 40.074219 84.050781 C 54.757986 59.60716 78.146938 40.039283 104.53125 30.125 C 107.42955 29.035923 109.88593 28.059378 109.99023 27.955078 C 110.37762 27.567691 108.14944 22.751186 106.62305 20.677734 C 104.77433 18.166436 101.09397 15.413855 98.074219 14.283203 C 96.394438 13.654262 95.154492 13.487567 92.25 13.498047 C 87.7841 13.514165 86.38076 14.024577 77.964844 18.699219 C 50.932238 33.714547 29.919308 55.507473 16.275391 82.679688 C 8.1155487 98.930223 3.3398207 114.89999 1.0507812 133.58008 C 0.12800174 141.11057 0.12800174 158.88943 1.0507812 166.41992 C 4.6845847 196.07419 15.33814 221.42703 33.927734 244.65039 C 38.598459 250.48536 48.390106 260.34529 54.587891 265.45508 C 79.673457 286.13695 110.84162 298.1788 142.98828 299.60938 C 146.13404 299.74975 149.95442 299.81391 151.47656 299.75391 C 152.9987 299.69388 156.31857 299.56404 158.85547 299.46484 C 172.03741 298.94924 188.76505 295.44302 202.39844 290.33789 C 238.05448 276.98623 267.33964 250.51992 284.18945 216.41992 C 292.03811 200.53617 296.71492 184.68903 298.94727 166.41992 C 299.86537 158.90358 299.86658 141.51068 298.94922 133.76367 C 296.79607 115.58047 292.08366 99.556031 284.18945 83.580078 C 276.81508 68.656108 267.96722 56.32605 256.10156 44.441406 C 252.6445 40.978805 248.01877 36.661798 245.82227 34.847656 C 227.14963 19.425571 205.38338 8.8014604 181.9707 3.6796875 C 175.76108 2.3212646 171.54311 1.6096584 168.3125 1.5175781 z " />
</svg>
