<?xml version="1.0" encoding="UTF-8" standalone="no"?>
<svg
   width="300"
   height="300"
   viewBox="0 0 300 300"
   fill="none"
   version="1.1"
   id="svg2"
   sodipodi:docname="battery_scale_07.svg"
   inkscape:version="1.3.2 (091e20e, 2023-11-25, custom)"
   xmlns:inkscape="http://www.inkscape.org/namespaces/inkscape"
   xmlns:sodipodi="http://sodipodi.sourceforge.net/DTD/sodipodi-0.dtd"
   xmlns="http://www.w3.org/2000/svg"
   xmlns:svg="http://www.w3.org/2000/svg">
  <defs
     id="defs2" />
  <sodipodi:namedview
     id="namedview2"
     pagecolor="#ffffff"
     bordercolor="#000000"
     borderopacity="0.25"
     inkscape:showpageshadow="2"
     inkscape:pageopacity="0.0"
     inkscape:pagecheckerboard="0"
     inkscape:deskcolor="#d1d1d1"
     inkscape:zoom="2.71"
     inkscape:cx="149.8155"
     inkscape:cy="150"
     inkscape:window-width="1920"
     inkscape:window-height="1009"
     inkscape:window-x="-8"
     inkscape:window-y="-8"
     inkscape:window-maximized="1"
     inkscape:current-layer="svg2" />
  <rect
     width="300"
     height="300"
     fill="black"
     id="rect1" />
  <circle
     cx="150"
     cy="150"
     r="150"
     fill="#181818"
     id="circle1" />
  <path
     d="M150 20C150 8.9543 158.994 -0.137109 169.941 1.33134C190.581 4.09984 210.494 11.1469 228.375 22.104C251.962 36.558 271.092 57.2532 283.651 81.9014C296.21 106.55 301.708 134.191 299.538 161.769C297.892 182.675 291.889 202.927 281.997 221.252C276.75 230.972 264.108 232.905 255.172 226.412L158.244 155.99C153.065 152.227 150 146.212 150 139.809L150 20Z"
     fill="#167c80"
     id="path1" />
  <circle
     cx="150"
     cy="150"
     r="128"
     fill="black"
     id="circle2" />
  <path
     d="M162.73 230.297L149.298 254.672C149.006 255.202 148.199 254.959 148.247 254.357L149.72 236.199L137.762 236.199C137.336 236.199 137.064 235.742 137.27 235.367L150.703 210.992C150.995 210.462 151.802 210.705 151.753 211.307L150.281 229.465L162.238 229.465C162.665 229.465 162.935 229.922 162.73 230.297Z"
     fill="white"
     id="path2" />
  <path
     style="fill:#2196f3;stroke-width:0.369004"
     d="m 261.75642,229.37382 c -2.04335,-0.58999 -5.45395,-2.27565 -6.83927,-3.38026 l -0.99584,-0.79406 2.78261,-4.20491 c 10.98739,-16.6035 17.44231,-33.84985 20.49484,-54.75843 0.92726,-6.35141 0.92726,-26.12091 0,-32.47232 -2.27154,-15.55909 -6.18567,-28.30809 -12.6318,-41.143914 C 257.86275,79.27017 250.14692,68.731683 239.43662,58.296225 216.88493,36.323241 188.95558,24.03674 157.09989,22.075182 l -7.10675,-0.437607 0.21951,-2.423954 c 0.68199,-7.530939 4.30166,-13.148062 10.4191,-16.16868 l 2.80377,-1.3844244 4.6291,0.034129 c 5.46521,0.040294 13.79218,1.5985469 23.35017,4.3695954 47.63178,13.80939 85.05832,49.786327 100.80118,96.896949 3.01998,9.0373 5.5142,20.45695 6.72776,30.80265 0.91178,7.77298 0.91476,24.78968 0.006,32.47232 -2.1552,18.2138 -6.92435,34.4009 -14.82783,50.3275 -3.747,7.55074 -5.49663,9.60851 -9.97998,11.73764 -2.64315,1.25523 -3.13086,1.36054 -6.76081,1.45985 -2.48366,0.068 -4.53735,-0.0735 -5.62437,-0.38733 z"
     id="path3" />
</svg>
