<?xml version="1.0" encoding="UTF-8" standalone="no"?>
<svg
   width="300"
   height="300"
   viewBox="0 0 300 300"
   fill="none"
   version="1.1"
   id="svg2"
   sodipodi:docname="battery_scale_02.svg"
   inkscape:version="1.3.2 (091e20e, 2023-11-25, custom)"
   xmlns:inkscape="http://www.inkscape.org/namespaces/inkscape"
   xmlns:sodipodi="http://sodipodi.sourceforge.net/DTD/sodipodi-0.dtd"
   xmlns="http://www.w3.org/2000/svg"
   xmlns:svg="http://www.w3.org/2000/svg">
  <defs
     id="defs2" />
  <sodipodi:namedview
     id="namedview2"
     pagecolor="#ffffff"
     bordercolor="#000000"
     borderopacity="0.25"
     inkscape:showpageshadow="2"
     inkscape:pageopacity="0.0"
     inkscape:pagecheckerboard="0"
     inkscape:deskcolor="#d1d1d1"
     inkscape:zoom="2.71"
     inkscape:cx="149.8155"
     inkscape:cy="150"
     inkscape:window-width="1920"
     inkscape:window-height="1009"
     inkscape:window-x="-8"
     inkscape:window-y="-8"
     inkscape:window-maximized="1"
     inkscape:current-layer="svg2" />
  <rect
     width="300"
     height="300"
     fill="black"
     id="rect1" />
  <circle
     cx="150"
     cy="150"
     r="150"
     fill="#181818"
     id="circle1" />
  <path
     d="M150 20C150 8.9543 158.994 -0.137173 169.941 1.33127C187.911 3.74157 205.298 9.391 221.252 18.0033C230.972 23.2501 232.905 35.8917 226.412 44.8278L186.18 100.202C174.792 115.876 150 107.821 150 88.4464L150 20Z"
     fill="#c62828"
     id="path1" />
  <circle
     cx="150"
     cy="150"
     r="128"
     fill="black"
     id="circle2" />
  <path
     d="M162.73 230.297L149.298 254.672C149.006 255.202 148.199 254.959 148.247 254.357L149.72 236.199L137.762 236.199C137.336 236.199 137.064 235.742 137.27 235.367L150.703 210.992C150.995 210.462 151.802 210.705 151.753 211.307L150.281 229.465L162.238 229.465C162.665 229.465 162.935 229.922 162.73 230.297Z"
     fill="white"
     id="path2" />
  <path
     style="fill:#e01b24;stroke-width:0.369004"
     d="m 222.14022,44.04993 c -12.63978,-8.69679 -27.85369,-15.378899 -43.17343,-18.962219 -5.84354,-1.366817 -14.55696,-2.568415 -21.8669,-3.015489 l -7.10675,-0.434647 0.21951,-2.423954 c 0.67868,-7.494363 4.30824,-13.1498048 10.3583,-16.139908 4.43709,-2.19292915 8.11139,-2.13776076 19.99526,0.300222 10.78488,2.2125251 21.51233,5.7530421 32.00006,10.561397 10.16393,4.659896 13.43243,7.090144 15.62793,11.619906 2.79006,5.756459 2.24603,12.606223 -1.45616,18.334223 -0.79486,1.229801 -1.49033,2.226011 -1.54549,2.213808 -0.0552,-0.01221 -1.42871,-0.93621 -3.05233,-2.053339 z"
     id="path3" />
</svg>
