<?xml version="1.0" encoding="UTF-8" standalone="no"?>
<svg
   width="300"
   height="300"
   viewBox="0 0 300 300"
   fill="none"
   version="1.1"
   id="svg2"
   sodipodi:docname="battery_scale_08.svg"
   inkscape:version="1.3.2 (091e20e, 2023-11-25, custom)"
   xmlns:inkscape="http://www.inkscape.org/namespaces/inkscape"
   xmlns:sodipodi="http://sodipodi.sourceforge.net/DTD/sodipodi-0.dtd"
   xmlns="http://www.w3.org/2000/svg"
   xmlns:svg="http://www.w3.org/2000/svg">
  <defs
     id="defs2" />
  <sodipodi:namedview
     id="namedview2"
     pagecolor="#ffffff"
     bordercolor="#000000"
     borderopacity="0.25"
     inkscape:showpageshadow="2"
     inkscape:pageopacity="0.0"
     inkscape:pagecheckerboard="0"
     inkscape:deskcolor="#d1d1d1"
     inkscape:zoom="2.71"
     inkscape:cx="149.8155"
     inkscape:cy="150"
     inkscape:window-width="1920"
     inkscape:window-height="1009"
     inkscape:window-x="-8"
     inkscape:window-y="-8"
     inkscape:window-maximized="1"
     inkscape:current-layer="svg2" />
  <rect
     width="300"
     height="300"
     fill="black"
     id="rect1" />
  <circle
     cx="150"
     cy="150"
     r="150"
     fill="#181818"
     id="circle1" />
  <path
     d="M150 20C150 8.9543 158.994 -0.137173 169.941 1.33127C194.494 4.62455 217.959 13.9649 238.168 28.6475C263.795 47.2667 282.87 73.5209 292.658 103.647C302.447 133.774 302.447 166.226 292.658 196.353C284.939 220.109 271.446 241.458 253.518 258.554C245.524 266.177 232.905 264.108 226.412 255.172L153.82 155.257C151.337 151.84 150 147.725 150 143.502L150 20Z"
     fill="#167c80"
     id="path1" />
  <circle
     cx="150"
     cy="150"
     r="128"
     fill="black"
     id="circle2" />
  <path
     d="M162.73 230.297L149.298 254.672C149.006 255.202 148.199 254.959 148.247 254.357L149.72 236.199L137.762 236.199C137.336 236.199 137.064 235.742 137.27 235.367L150.703 210.992C150.995 210.462 151.802 210.705 151.753 211.307L150.281 229.465L162.238 229.465C162.665 229.465 162.935 229.922 162.73 230.297Z"
     fill="white"
     id="path2" />
  <path
     style="fill:#2196f3;stroke-width:0.369004"
     d="m 238.19188,262.69687 c -2.91821,-0.5657 -7.00713,-2.85563 -9.44116,-5.28735 -3.69074,-3.68725 -3.7601,-3.2823 1.24099,-7.24482 5.14815,-4.07904 15.77411,-14.62303 19.68929,-19.53739 13.07265,-16.4089 22.03477,-35.4805 25.92363,-55.16606 2.00224,-10.13539 2.2406,-12.84394 2.2406,-25.46125 0,-12.61731 -0.23836,-15.32586 -2.2406,-25.46125 -2.75322,-13.93694 -8.57896,-28.80599 -16.1926,-41.328418 -14.84636,-24.418354 -38.32656,-43.674509 -65.40457,-53.638419 -11.4081,-4.197845 -23.62129,-6.678609 -36.90757,-7.496731 l -7.10675,-0.437607 0.21951,-2.423954 c 0.68199,-7.530939 4.30166,-13.148062 10.4191,-16.16868 2.8035,-1.3842922 2.80421,-1.3844218 7.43287,-1.3571134 5.44257,0.03211 13.67168,1.5746046 23.33904,4.3747547 51.82288,15.0105027 91.31506,56.2014697 104.14126,108.6209577 1.44809,5.91826 2.92152,14.38171 3.6108,20.74081 0.70424,6.49707 0.58473,24.06464 -0.20962,30.81181 -3.70891,31.50359 -16.05416,59.35208 -36.78367,82.97681 -5.87139,6.69142 -10.29005,10.78792 -13.00848,12.06003 -3.65079,1.70841 -7.14979,2.1629 -10.96207,1.42387 z"
     id="path3" />
</svg>
