<?xml version="1.0" encoding="UTF-8" standalone="no"?>
<svg
   width="300"
   height="300"
   viewBox="0 0 300 300"
   fill="none"
   version="1.1"
   id="svg2"
   sodipodi:docname="battery_scale_15.svg"
   inkscape:version="1.3.2 (091e20e, 2023-11-25, custom)"
   xmlns:inkscape="http://www.inkscape.org/namespaces/inkscape"
   xmlns:sodipodi="http://sodipodi.sourceforge.net/DTD/sodipodi-0.dtd"
   xmlns="http://www.w3.org/2000/svg"
   xmlns:svg="http://www.w3.org/2000/svg">
  <defs
     id="defs2" />
  <sodipodi:namedview
     id="namedview2"
     pagecolor="#ffffff"
     bordercolor="#000000"
     borderopacity="0.25"
     inkscape:showpageshadow="2"
     inkscape:pageopacity="0.0"
     inkscape:pagecheckerboard="0"
     inkscape:deskcolor="#d1d1d1"
     inkscape:zoom="2.71"
     inkscape:cx="149.8155"
     inkscape:cy="150"
     inkscape:window-width="1920"
     inkscape:window-height="1009"
     inkscape:window-x="-8"
     inkscape:window-y="-8"
     inkscape:window-maximized="1"
     inkscape:current-layer="svg2" />
  <rect
     width="300"
     height="300"
     fill="black"
     id="rect1" />
  <circle
     cx="150"
     cy="150"
     r="150"
     fill="#181818"
     id="circle1" />
  <path
     d="M150 20C150 8.9543 158.994 -0.137139 169.941 1.33131C192.536 4.36201 214.235 12.5169 233.336 25.2796C258.003 41.7618 277.229 65.1886 288.582 92.5975C299.935 120.006 302.906 150.166 297.118 179.264C291.33 208.361 277.044 235.088 256.066 256.066C235.088 277.044 208.361 291.33 179.264 297.118C150.166 302.906 120.006 299.935 92.5975 288.582C65.1886 277.229 41.7618 258.003 25.2796 233.336C12.5169 214.235 4.36201 192.536 1.33131 169.941C-0.137139 158.994 8.95431 150 20 150L130 150C141.046 150 150 141.046 150 130L150 20Z"
     fill="#167c80"
     id="path1" />
  <circle
     cx="150"
     cy="150"
     r="128"
     fill="black"
     id="circle2" />
  <path
     d="M162.73 230.297L149.298 254.672C149.006 255.202 148.199 254.959 148.247 254.357L149.72 236.199L137.762 236.199C137.336 236.199 137.064 235.742 137.27 235.367L150.703 210.992C150.995 210.462 151.802 210.705 151.753 211.307L150.281 229.465L162.238 229.465C162.665 229.465 162.935 229.922 162.73 230.297Z"
     fill="white"
     id="path2" />
  <path
     id="path3"
     style="fill:#2196f3;stroke-width:0.369004"
     d="M 163.43555 1.6601562 L 160.56836 3.0761719 C 154.48337 6.0808346 150.89584 11.671368 150.21289 19.212891 L 149.99219 21.636719 L 157.09961 22.074219 C 170.38588 22.89234 182.59972 25.374425 194.00781 29.572266 C 221.0858 39.536166 244.56576 58.792608 259.41211 83.210938 C 267.02574 95.733353 272.85225 110.60214 275.60547 124.53906 C 277.60771 134.67444 277.8457 137.3827 277.8457 150 C 277.8457 162.6173 277.60771 165.32556 275.60547 175.46094 C 271.71661 195.14648 262.75428 214.21807 249.68164 230.62695 C 245.88599 235.39128 235.21921 246.01481 230.25781 249.97266 C 216.95336 260.586 201.04562 268.81904 185.3457 273.2168 C 144.85771 284.55802 102.39155 276.01756 69.742188 249.9668 C 64.680404 245.92803 54.417065 235.70856 50.505859 230.8125 C 44.144696 222.84959 39.733644 215.98508 35.332031 207.19531 C 27.265054 191.08602 22.7461 173.73932 22.076172 156.31445 L 21.835938 150.08398 L 18.851562 150.30078 C 9.7677594 150.96 2.7510815 157.11788 1.5449219 165.49023 C 1.2193952 167.74982 1.3013682 168.90074 2.1582031 174.03906 C 4.6355829 188.89559 9.001374 202.57339 15.498047 215.82617 C 38.561626 262.87434 83.679881 293.96863 136.53125 299.24023 C 141.94163 299.77989 162.72344 299.45463 168.08203 298.74609 C 192.62414 295.501 214.56072 287.22633 234.31641 273.76367 C 267.4148 251.20852 290.18835 216.17584 297.37891 176.75195 C 299.15663 167.00508 299.59497 161.81323 299.60547 150.36914 C 299.61851 136.21736 298.51207 126.70702 295.39062 114.11328 C 282.47238 61.993588 243.04144 21.020279 191.41406 6.0664062 C 181.73605 3.2631699 173.50897 1.719622 168.06445 1.6875 L 163.43555 1.6601562 z " />
</svg>
