<?xml version="1.0" encoding="UTF-8" standalone="no"?>
<svg
   width="300"
   height="300"
   viewBox="0 0 300 300"
   fill="none"
   version="1.1"
   id="svg2"
   sodipodi:docname="battery_scale_03.svg"
   inkscape:version="1.3.2 (091e20e, 2023-11-25, custom)"
   xmlns:inkscape="http://www.inkscape.org/namespaces/inkscape"
   xmlns:sodipodi="http://sodipodi.sourceforge.net/DTD/sodipodi-0.dtd"
   xmlns="http://www.w3.org/2000/svg"
   xmlns:svg="http://www.w3.org/2000/svg">
  <defs
     id="defs2" />
  <sodipodi:namedview
     id="namedview2"
     pagecolor="#ffffff"
     bordercolor="#000000"
     borderopacity="0.25"
     inkscape:showpageshadow="2"
     inkscape:pageopacity="0.0"
     inkscape:pagecheckerboard="0"
     inkscape:deskcolor="#d1d1d1"
     inkscape:zoom="2.71"
     inkscape:cx="149.8155"
     inkscape:cy="150"
     inkscape:window-width="1920"
     inkscape:window-height="1009"
     inkscape:window-x="-8"
     inkscape:window-y="-8"
     inkscape:window-maximized="1"
     inkscape:current-layer="svg2" />
  <rect
     width="300"
     height="300"
     fill="black"
     id="rect1" />
  <circle
     cx="150"
     cy="150"
     r="150"
     fill="#181818"
     id="circle1" />
  <path
     d="M150 20C150 8.9543 158.993 -0.137072 169.941 1.33136C186.679 3.57645 202.966 8.63872 218.099 16.349C233.231 24.0593 246.9 34.2606 258.554 46.4822C266.177 54.4759 264.108 67.0954 255.172 73.5879L181.756 126.928C168.535 136.533 150 127.089 150 110.748L150 20Z"
     fill="#c62828"
     id="path1"
     style="fill:#c01c28" />
  <circle
     cx="150"
     cy="150"
     r="128"
     fill="black"
     id="circle2" />
  <path
     d="M162.73 230.297L149.298 254.672C149.006 255.202 148.199 254.959 148.247 254.357L149.72 236.199L137.762 236.199C137.336 236.199 137.064 235.742 137.27 235.367L150.703 210.992C150.995 210.462 151.802 210.705 151.753 211.307L150.281 229.465L162.238 229.465C162.665 229.465 162.935 229.922 162.73 230.297Z"
     fill="white"
     id="path2" />
  <path
     id="path3"
     style="fill:#e01b24;stroke-width:0.369004"
     d="M 167.97852 1.5 C 164.87847 1.4304121 162.79674 1.9741737 160.51562 3.1015625 C 154.47653 6.0862491 150.92259 11.630337 150.18945 19.212891 L 149.95508 21.634766 L 157.08203 22.070312 C 174.66634 23.145745 190.07575 27.065295 205.21094 34.308594 C 213.77418 38.406735 221.20698 43.024779 229.33594 49.298828 C 230.57004 50.251325 232.16922 51.638044 233.92188 53.234375 C 234.57469 53.832702 235.25119 54.461343 235.93945 55.109375 C 236.21022 55.364186 236.47141 55.605748 236.74609 55.867188 C 237.26316 56.358678 237.79179 56.873773 238.31641 57.380859 C 243.04881 61.976235 247.95876 67.130694 250.36719 70.203125 C 252.07741 72.384857 253.66373 74.169922 253.89062 74.169922 C 254.62651 74.169922 258.7348 70.1807 259.95117 68.285156 C 263.97283 62.017953 263.91777 53.945603 259.81641 48.466797 C 258.10184 46.176405 252.73616 40.822444 248.1543 36.830078 C 229.6147 20.675766 205.2227 8.4970197 181.55078 3.5742188 C 175.19759 2.2530122 171.07856 1.5695879 167.97852 1.5 z " />
</svg>
