<?xml version="1.0" encoding="UTF-8" standalone="no"?>
<svg
   width="300"
   height="300"
   viewBox="0 0 300 300"
   fill="none"
   version="1.1"
   id="svg2"
   sodipodi:docname="battery_scale_16.svg"
   inkscape:version="1.3.2 (091e20e, 2023-11-25, custom)"
   xmlns:inkscape="http://www.inkscape.org/namespaces/inkscape"
   xmlns:sodipodi="http://sodipodi.sourceforge.net/DTD/sodipodi-0.dtd"
   xmlns="http://www.w3.org/2000/svg"
   xmlns:svg="http://www.w3.org/2000/svg">
  <defs
     id="defs2" />
  <sodipodi:namedview
     id="namedview2"
     pagecolor="#ffffff"
     bordercolor="#000000"
     borderopacity="0.25"
     inkscape:showpageshadow="2"
     inkscape:pageopacity="0.0"
     inkscape:pagecheckerboard="0"
     inkscape:deskcolor="#d1d1d1"
     inkscape:zoom="2.71"
     inkscape:cx="149.8155"
     inkscape:cy="150"
     inkscape:window-width="1920"
     inkscape:window-height="1009"
     inkscape:window-x="-8"
     inkscape:window-y="-8"
     inkscape:window-maximized="1"
     inkscape:current-layer="svg2" />
  <rect
     width="300"
     height="300"
     fill="black"
     id="rect1" />
  <circle
     cx="150"
     cy="150"
     r="150"
     fill="#181818"
     id="circle1" />
  <path
     d="M150 20C150 8.9543 158.994 -0.137173 169.941 1.33127C194.494 4.62455 217.959 13.9649 238.168 28.6475C263.795 47.2667 282.87 73.5209 292.658 103.647C302.447 133.774 302.447 166.226 292.658 196.353C282.87 226.479 263.795 252.733 238.168 271.353C212.541 289.972 181.677 300 150 300C118.323 300 87.4593 289.972 61.8322 271.353C36.2051 252.733 17.1302 226.479 7.34152 196.353C-0.377567 172.596 -2.0096 147.393 2.44542 123.024C4.43186 112.159 15.8576 106.414 26.3627 109.828L123.82 141.493C136.742 145.692 150 136.06 150 122.472L150 20Z"
     fill="#167c80"
     id="path1" />
  <circle
     cx="150"
     cy="150"
     r="128"
     fill="black"
     id="circle2" />
  <path
     d="M162.73 230.297L149.298 254.672C149.006 255.202 148.199 254.959 148.247 254.357L149.72 236.199L137.762 236.199C137.336 236.199 137.064 235.742 137.27 235.367L150.703 210.992C150.995 210.462 151.802 210.705 151.753 211.307L150.281 229.465L162.238 229.465C162.665 229.465 162.935 229.922 162.73 230.297Z"
     fill="white"
     id="path2" />
  <path
     id="path3"
     style="fill:#2196f3;stroke-width:0.369004"
     d="M 168.06445 1.6875 C 163.4358 1.6601916 163.43436 1.6606311 160.63086 3.0449219 C 154.51343 6.0655369 150.89488 11.681959 150.21289 19.212891 L 149.99219 21.636719 L 157.09961 22.074219 C 170.38588 22.89234 182.59972 25.374425 194.00781 29.572266 C 221.0858 39.536166 244.56576 58.792608 259.41211 83.210938 C 267.02574 95.733353 272.85225 110.60214 275.60547 124.53906 C 277.60771 134.67444 277.8457 137.3827 277.8457 150 C 277.8457 162.6173 277.60771 165.32556 275.60547 175.46094 C 271.71661 195.14648 262.75428 214.21807 249.68164 230.62695 C 245.88599 235.39128 235.21921 246.01481 230.25781 249.97266 C 216.95336 260.586 201.04562 268.81904 185.3457 273.2168 C 144.85771 284.55802 102.39155 276.01756 69.742188 249.9668 C 64.680404 245.92803 54.417065 235.70856 50.505859 230.8125 C 41.951624 220.10429 35.536956 209.10322 30.708984 196.86328 C 26.806959 186.97081 24.570016 178.30875 22.802734 166.23633 C 21.872449 159.88149 21.872449 140.11851 22.802734 133.76367 C 23.946792 125.94853 25.439554 118.92739 27.144531 113.33789 C 27.53797 112.04807 27.859375 110.86577 27.859375 110.71094 C 27.859375 110.08419 23.17667 109.14611 20.128906 109.16211 C 13.035796 109.19922 7.163471 112.68534 4.140625 118.65625 C 3.0618751 120.78707 2.3128388 124.10413 1.4882812 130.40234 C -4.4224575 175.55027 10.544678 221.08445 42.044922 253.78125 C 68.681957 281.43012 104.84161 297.87108 142.80469 299.5957 C 146.25486 299.75242 150.40568 299.82837 152.0293 299.76367 C 161.3538 299.39234 164.18693 299.19031 169.30469 298.5332 C 214.19596 292.76922 254.51931 266.49579 278.05078 227.67578 C 289.30828 209.10421 296.3295 188.45513 298.94531 166.23633 C 299.73966 159.48916 299.86049 141.92089 299.15625 135.42383 C 298.46697 129.06473 296.99301 120.60185 295.54492 114.68359 C 282.71873 62.264158 243.22713 21.072988 191.4043 6.0625 C 181.73695 3.2623527 173.50703 1.71961 168.06445 1.6875 z " />
</svg>
