<?xml version="1.0" encoding="UTF-8" standalone="no"?>
<svg
   width="300"
   height="300"
   viewBox="0 0 300 300"
   fill="none"
   version="1.1"
   id="svg2"
   sodipodi:docname="battery_scale_17.svg"
   inkscape:version="1.3.2 (091e20e, 2023-11-25, custom)"
   xmlns:inkscape="http://www.inkscape.org/namespaces/inkscape"
   xmlns:sodipodi="http://sodipodi.sourceforge.net/DTD/sodipodi-0.dtd"
   xmlns="http://www.w3.org/2000/svg"
   xmlns:svg="http://www.w3.org/2000/svg">
  <defs
     id="defs2" />
  <sodipodi:namedview
     id="namedview2"
     pagecolor="#ffffff"
     bordercolor="#000000"
     borderopacity="0.25"
     inkscape:showpageshadow="2"
     inkscape:pageopacity="0.0"
     inkscape:pagecheckerboard="0"
     inkscape:deskcolor="#d1d1d1"
     inkscape:zoom="2.71"
     inkscape:cx="149.8155"
     inkscape:cy="150"
     inkscape:window-width="1920"
     inkscape:window-height="1009"
     inkscape:window-x="-8"
     inkscape:window-y="-8"
     inkscape:window-maximized="1"
     inkscape:current-layer="svg2" />
  <rect
     width="300"
     height="300"
     fill="black"
     id="rect1" />
  <circle
     cx="150"
     cy="150"
     r="150"
     fill="#181818"
     id="circle1" />
  <path
     d="M150 20C150 8.9543 158.994 -0.13721 169.942 1.33122C196.455 4.88752 221.666 15.4912 242.864 32.2025C269.324 53.0615 287.99 82.2213 295.855 114.983C303.721 147.745 300.327 182.201 286.221 212.799C272.116 243.397 248.119 268.355 218.099 283.651C188.078 298.947 153.782 303.691 120.736 297.118C87.691 290.545 57.8208 273.037 35.9391 247.417C14.0573 221.797 1.43841 189.556 0.115643 155.889C-0.944093 128.917 5.29598 102.288 18.0031 78.7477C23.25 69.0277 35.8917 67.0954 44.8278 73.5879L118.244 126.928C131.465 136.533 150 127.089 150 110.748L150 20Z"
     fill="#167c80"
     id="path1" />
  <circle
     cx="150"
     cy="150"
     r="128"
     fill="black"
     id="circle2" />
  <path
     d="M162.73 230.297L149.298 254.672C149.006 255.202 148.199 254.959 148.247 254.357L149.72 236.199L137.762 236.199C137.336 236.199 137.064 235.742 137.27 235.367L150.703 210.992C150.995 210.462 151.802 210.705 151.753 211.307L150.281 229.465L162.238 229.465C162.665 229.465 162.935 229.922 162.73 230.297Z"
     fill="white"
     id="path2" />
  <path
     id="path3"
     style="fill:#2196f3;stroke-width:0.369004"
     d="M 167.76953 1.4863281 C 164.81066 1.4431454 162.78245 1.9810149 160.55469 3.0820312 C 154.51877 6.0651458 150.89118 11.722759 150.21289 19.212891 L 149.99219 21.636719 L 157.09961 22.074219 C 170.38588 22.89234 182.59972 25.374425 194.00781 29.572266 C 221.0858 39.536166 244.56576 58.792608 259.41211 83.210938 C 267.02574 95.733353 272.85225 110.60214 275.60547 124.53906 C 277.60771 134.67444 277.8457 137.3827 277.8457 150 C 277.8457 162.6173 277.60771 165.32556 275.60547 175.46094 C 271.71661 195.14648 262.75428 214.21807 249.68164 230.62695 C 245.88599 235.39128 235.21921 246.01481 230.25781 249.97266 C 216.95336 260.586 201.04562 268.81904 185.3457 273.2168 C 144.85771 284.55802 102.39154 276.01756 69.742188 249.9668 C 64.680404 245.92803 54.417065 235.70856 50.505859 230.8125 C 41.951624 220.10429 35.536956 209.10322 30.708984 196.86328 C 26.806959 186.97081 24.570016 178.30875 22.802734 166.23633 C 21.872449 159.88149 21.872449 140.11851 22.802734 133.76367 C 24.569557 121.69439 26.8045 113.03523 30.707031 103.13672 C 34.130623 94.453009 39.204793 84.844803 44.226562 77.537109 L 46.097656 74.814453 L 45.005859 73.945312 C 43.424824 72.684639 39.791891 71.004955 37.5 70.474609 C 36.293809 70.195495 34.170829 70.086054 32.082031 70.195312 C 29.107463 70.350898 28.269263 70.5536 25.828125 71.712891 C 21.382769 73.823981 19.616212 75.902609 15.892578 83.40625 C 7.9959739 99.319009 3.186149 115.64496 1.0546875 133.76367 C 0.13854405 141.5514 0.13619591 158.95052 1.0507812 166.41992 C 3.2950272 184.74863 7.9454873 200.50294 15.810547 216.41992 C 29.352815 243.82622 50.629213 266.09086 77.673828 281.15625 C 97.132075 291.9956 120.557 298.63604 142.61914 299.56445 C 168.91926 300.67119 192.91315 295.73307 215.86719 284.49219 C 245.61942 269.92214 269.33048 246.3113 284.15039 216.49609 C 292.01238 200.67908 296.79392 184.43771 298.94922 166.23633 C 299.86689 158.48931 299.86569 141.09643 298.94727 133.58008 C 296.20846 111.16614 289.26927 90.823857 278.05078 72.324219 C 256.57908 36.916719 220.83456 11.634083 180.56641 3.3730469 C 174.61788 2.1527033 170.7284 1.5295108 167.76953 1.4863281 z " />
</svg>
