<?xml version="1.0" encoding="UTF-8" standalone="no"?>
<svg
   width="300"
   height="300"
   viewBox="0 0 300 300"
   fill="none"
   version="1.1"
   id="svg2"
   sodipodi:docname="battery_scale_18.svg"
   inkscape:version="1.3.2 (091e20e, 2023-11-25, custom)"
   xmlns:inkscape="http://www.inkscape.org/namespaces/inkscape"
   xmlns:sodipodi="http://sodipodi.sourceforge.net/DTD/sodipodi-0.dtd"
   xmlns="http://www.w3.org/2000/svg"
   xmlns:svg="http://www.w3.org/2000/svg">
  <defs
     id="defs2" />
  <sodipodi:namedview
     id="namedview2"
     pagecolor="#ffffff"
     bordercolor="#000000"
     borderopacity="0.25"
     inkscape:showpageshadow="2"
     inkscape:pageopacity="0.0"
     inkscape:pagecheckerboard="0"
     inkscape:deskcolor="#d1d1d1"
     inkscape:zoom="2.71"
     inkscape:cx="149.8155"
     inkscape:cy="150"
     inkscape:window-width="1920"
     inkscape:window-height="1009"
     inkscape:window-x="-8"
     inkscape:window-y="-8"
     inkscape:window-maximized="1"
     inkscape:current-layer="svg2" />
  <rect
     width="300"
     height="300"
     fill="black"
     id="rect1" />
  <circle
     cx="150"
     cy="150"
     r="150"
     fill="#181818"
     id="circle1" />
  <path
     d="M150 20C150 8.9543 158.994 -0.137283 169.941 1.33108C198.42 5.15078 225.355 17.0964 247.417 35.9391C274.575 59.1345 292.566 91.2591 298.153 126.535C303.74 161.811 296.557 197.922 277.896 228.375C259.235 258.827 230.32 281.622 196.353 292.658C162.385 303.695 125.594 302.25 92.5974 288.582C59.6007 274.914 32.5635 249.921 16.349 218.099C0.134526 186.276 -4.1931 149.712 4.14452 114.983C10.9176 86.7713 25.6875 61.2748 46.4819 41.4454C54.4756 33.8226 67.0955 35.8916 73.588 44.8278L113.82 100.202C125.208 115.876 150 107.821 150 88.4463L150 20Z"
     fill="#167c80"
     id="path1" />
  <circle
     cx="150"
     cy="150"
     r="128"
     fill="black"
     id="circle2" />
  <path
     d="M162.73 230.297L149.298 254.672C149.006 255.202 148.199 254.959 148.247 254.357L149.72 236.199L137.762 236.199C137.336 236.199 137.064 235.742 137.27 235.367L150.703 210.992C150.995 210.462 151.802 210.705 151.753 211.307L150.281 229.465L162.238 229.465C162.665 229.465 162.935 229.922 162.73 230.297Z"
     fill="white"
     id="path2" />
  <path
     id="path3"
     style="fill:#2196f3;stroke-width:0.369004"
     d="M 167.92969 1.4863281 C 164.87553 1.4235776 162.79798 1.9736993 160.49219 3.1132812 C 154.48876 6.0803269 150.89213 11.712357 150.21289 19.212891 L 149.99219 21.636719 L 157.09961 22.074219 C 170.38586 22.892338 182.59974 25.374433 194.00781 29.572266 C 221.08576 39.536146 244.56578 58.792656 259.41211 83.210938 C 267.02572 95.733327 272.85225 110.60218 275.60547 124.53906 C 277.60771 134.67442 277.8457 137.38272 277.8457 150 C 277.8457 162.61728 277.60771 165.32558 275.60547 175.46094 C 271.71661 195.14644 262.75426 214.21811 249.68164 230.62695 C 247.19326 233.75039 241.80029 239.29885 236.94922 243.92969 C 236.14869 244.6936 235.31272 245.51278 234.54297 246.21875 C 233.29783 247.36469 232.24001 248.27503 231.24609 249.10742 C 230.73222 249.54725 230.21583 249.97152 229.70508 250.39258 C 216.51184 260.79819 200.83286 268.87863 185.3457 273.2168 C 175.75439 275.90345 166.05302 277.43536 156.39648 277.92188 C 156.28842 277.92524 156.17314 277.92455 156.06445 277.92773 C 152.28386 278.03092 148.31923 278.03153 144.49805 277.93945 C 144.29324 277.93407 144.08148 277.93178 143.87891 277.92578 C 117.34923 276.6875 91.695307 267.29035 70.230469 250.32617 C 69.746222 249.92524 69.257492 249.52163 68.769531 249.10352 C 67.59398 248.12051 66.276868 246.95769 64.808594 245.58789 C 64.134971 244.96335 63.420507 244.27031 62.724609 243.60352 C 61.169286 242.10504 59.591472 240.56365 58.046875 238.99023 C 56.272739 237.18271 54.593921 235.42222 53.068359 233.73047 C 52.130119 232.68991 51.141272 231.60791 50.505859 230.8125 C 44.14471 222.84961 39.733636 215.98506 35.332031 207.19531 C 30.044616 196.63664 26.413703 185.98138 24.201172 174.53906 C 22.393396 165.18996 22.154297 162.33634 22.154297 150 C 22.154297 137.66366 22.393396 134.81004 24.201172 125.46094 C 28.119977 105.19444 36.84937 86.364134 50.03125 69.742188 C 54.151245 64.547 64.668269 54.066627 70.007812 49.835938 C 75.008893 45.873423 74.940726 46.277076 71.25 42.589844 C 67.052843 38.396665 60.939587 36.267992 55.685547 37.167969 C 50.257019 38.097837 46.3701 41.063231 37.837891 50.787109 C 17.164453 74.347944 4.9367694 101.86781 1.0507812 133.58008 C 0.12800271 141.11056 0.12800271 158.88944 1.0507812 166.41992 C 3.297638 184.75578 7.9458728 200.50373 15.810547 216.41992 C 40.006243 265.3862 89.175254 297.40709 143.54297 299.60547 C 146.99315 299.74533 150.81159 299.81211 152.0293 299.75391 C 153.24701 299.69573 156.31857 299.56685 158.85547 299.4668 C 183.69271 298.4873 211.1231 289.27184 233.29102 274.45898 C 266.9311 251.9803 289.98986 216.82109 297.375 176.75195 C 299.14867 167.12871 299.59572 161.844 299.60742 150.36914 C 299.62181 136.29635 298.56907 127.04299 295.54492 114.68359 C 281.8266 58.618016 237.41432 15.440762 181.2207 3.5390625 C 175.01447 2.2245922 170.98382 1.5490788 167.92969 1.4863281 z " />
</svg>
