<?xml version="1.0" encoding="UTF-8" standalone="no"?>
<svg
   width="300"
   height="300"
   viewBox="0 0 300 300"
   fill="none"
   version="1.1"
   id="svg2"
   sodipodi:docname="battery_scale_20.svg"
   inkscape:version="1.3.2 (091e20e, 2023-11-25, custom)"
   xmlns:inkscape="http://www.inkscape.org/namespaces/inkscape"
   xmlns:sodipodi="http://sodipodi.sourceforge.net/DTD/sodipodi-0.dtd"
   xmlns="http://www.w3.org/2000/svg"
   xmlns:svg="http://www.w3.org/2000/svg">
  <defs
     id="defs2" />
  <sodipodi:namedview
     id="namedview2"
     pagecolor="#ffffff"
     bordercolor="#000000"
     borderopacity="0.25"
     inkscape:showpageshadow="2"
     inkscape:pageopacity="0.0"
     inkscape:pagecheckerboard="0"
     inkscape:deskcolor="#d1d1d1"
     inkscape:zoom="2.71"
     inkscape:cx="149.8155"
     inkscape:cy="150"
     inkscape:window-width="1920"
     inkscape:window-height="1009"
     inkscape:window-x="-8"
     inkscape:window-y="-8"
     inkscape:window-maximized="1"
     inkscape:current-layer="svg2" />
  <rect
     width="300"
     height="300"
     fill="black"
     id="rect1" />
  <circle
     cx="150"
     cy="150"
     r="150"
     fill="#167c80"
     id="circle1" />
  <circle
     cx="150"
     cy="150"
     r="128"
     fill="black"
     id="circle2" />
  <path
     d="M162.73 230.297L149.298 254.672C149.006 255.202 148.199 254.959 148.247 254.357L149.72 236.199L137.762 236.199C137.336 236.199 137.064 235.742 137.27 235.367L150.703 210.992C150.995 210.462 151.802 210.705 151.753 211.307L150.281 229.465L162.238 229.465C162.665 229.465 162.935 229.922 162.73 230.297Z"
     fill="white"
     id="path2" />
  <path
     style="fill:#2196f3;stroke-width:0.369004;fill-opacity:1"
     d=""
     id="path3" />
  <path
     style="fill:#2196f3;fill-opacity:1;stroke-width:0.369004"
     d="M 143.35793,299.58084 C 105.34172,298.11568 68.694886,281.53358 41.988424,253.71276 31.4869,242.77305 23.37149,231.29795 16.397644,217.52768 8.1530849,201.2483 3.2519077,184.86661 1.0519297,166.23616 c -0.91297549,-7.7315 -0.91297549,-24.74082 0,-32.47232 C 4.0969561,107.97713 13.057586,84.345531 27.636513,63.653137 49.041852,33.271768 81.615517,11.617732 117.76793,3.7363609 129.0689,1.2727051 137.86469,0.33717827 149.8155,0.32775672 164.97123,0.31580852 177.4099,2.0307118 191.45182,6.0680974 242.79819,20.831404 282.19277,61.729314 295.36873,113.95056 c 3.10141,12.29203 4.23295,21.92867 4.23295,36.04944 0,7.91123 -0.1704,12.14415 -0.65361,16.23616 -1.6023,13.56907 -4.74587,26.28983 -9.47161,38.32787 -17.02665,43.37253 -53.20043,76.38242 -97.87613,89.31551 -15.72688,4.55275 -31.05167,6.36384 -48.2424,5.7013 z m 22.56459,-22.43952 c 23.99931,-3.09383 45.58165,-12.20793 64.33578,-27.16864 4.9614,-3.95785 15.62705,-14.58104 19.4227,-19.34537 13.07265,-16.4089 22.03477,-35.4805 25.92363,-55.16606 2.00224,-10.13539 2.2406,-12.84394 2.2406,-25.46125 0,-12.61731 -0.23836,-15.32586 -2.2406,-25.46125 C 272.24221,107.51804 264.5796,89.856306 254.31217,75.461255 248.17852,66.861797 238.62015,56.763568 230.2583,50.048815 199.74938,25.549447 160.04205,16.431482 121.46373,25.066395 97.411454,30.449972 75.624649,42.721347 58.118081,60.745712 48.367712,70.784472 41.442616,80.532181 35.269863,92.906694 28.829905,105.81686 25.109045,118.01108 22.802999,133.76384 c -0.930286,6.35484 -0.930286,26.11748 0,32.47232 2.316068,15.82121 6.043937,28.00743 12.529842,40.95941 6.559546,13.09904 13.547177,22.73479 24.234934,33.41929 6.909505,6.90741 11.900856,11.034 19.399015,16.03812 18.370959,12.2604 39.19987,19.42758 61.62362,21.20456 6.20503,0.49172 18.70301,0.13837 25.33211,-0.71622 z"
     id="path4" />
</svg>
