<?xml version="1.0" encoding="UTF-8" standalone="no"?>
<svg
   width="300"
   height="300"
   viewBox="0 0 300 300"
   fill="none"
   version="1.1"
   id="svg2"
   sodipodi:docname="battery_scale_01.svg"
   inkscape:version="1.3.2 (091e20e, 2023-11-25, custom)"
   xmlns:inkscape="http://www.inkscape.org/namespaces/inkscape"
   xmlns:sodipodi="http://sodipodi.sourceforge.net/DTD/sodipodi-0.dtd"
   xmlns="http://www.w3.org/2000/svg"
   xmlns:svg="http://www.w3.org/2000/svg">
  <defs
     id="defs2" />
  <sodipodi:namedview
     id="namedview2"
     pagecolor="#ffffff"
     bordercolor="#000000"
     borderopacity="0.25"
     inkscape:showpageshadow="2"
     inkscape:pageopacity="0.0"
     inkscape:pagecheckerboard="0"
     inkscape:deskcolor="#d1d1d1"
     inkscape:zoom="2.71"
     inkscape:cx="149.8155"
     inkscape:cy="150"
     inkscape:window-width="1920"
     inkscape:window-height="1009"
     inkscape:window-x="-8"
     inkscape:window-y="-8"
     inkscape:window-maximized="1"
     inkscape:current-layer="svg2" />
  <rect
     width="300"
     height="300"
     fill="black"
     id="rect1" />
  <circle
     cx="150"
     cy="150"
     r="150"
     fill="#181818"
     id="circle1" />
  <path
     d="M150 20C150 8.9543 158.993 -0.137037 169.941 1.33137C172.294 1.64706 174.64 2.0186 176.976 2.44566C187.842 4.43214 193.586 15.8576 190.172 26.3627L189.021 29.9054C181.983 51.5661 150 46.5005 150 23.725L150 20Z"
     fill="#c62828"
     id="path1" />
  <circle
     cx="150"
     cy="150"
     r="128"
     fill="black"
     id="circle2" />
  <path
     d="M162.73 230.297L149.298 254.672C149.006 255.202 148.199 254.959 148.247 254.357L149.72 236.199L137.762 236.199C137.336 236.199 137.064 235.742 137.27 235.367L150.703 210.992C150.995 210.462 151.802 210.705 151.753 211.307L150.281 229.465L162.238 229.465C162.665 229.465 162.935 229.922 162.73 230.297Z"
     fill="white"
     id="path2" />
  <path
     style="fill:#e01b24;stroke-width:0.369004"
     d="m 187.08487,27.245751 c -8.79647,-2.686278 -19.49984,-4.532264 -30.00364,-5.174662 l -7.12542,-0.435781 0.23426,-2.42282 c 0.73262,-7.577223 4.31614,-13.1414194 10.39997,-16.1482115 2.39327,-1.1828162 3.1849,-1.384233 5.9559,-1.5153717 4.41468,-0.2089274 11.50216,1.0150284 14.69135,2.5370907 7.19423,3.4334872 11.12045,12.2605945 9.1574,20.5880615 -0.8035,3.40852 -0.73749,3.357234 -3.30982,2.571694 z"
     id="path3" />
</svg>
