<?xml version="1.0" encoding="UTF-8" standalone="no"?>
<svg
   width="300"
   height="300"
   viewBox="0 0 300 300"
   fill="none"
   version="1.1"
   id="svg2"
   sodipodi:docname="battery_scale_11.svg"
   inkscape:version="1.3.2 (091e20e, 2023-11-25, custom)"
   xmlns:inkscape="http://www.inkscape.org/namespaces/inkscape"
   xmlns:sodipodi="http://sodipodi.sourceforge.net/DTD/sodipodi-0.dtd"
   xmlns="http://www.w3.org/2000/svg"
   xmlns:svg="http://www.w3.org/2000/svg">
  <defs
     id="defs2" />
  <sodipodi:namedview
     id="namedview2"
     pagecolor="#ffffff"
     bordercolor="#000000"
     borderopacity="0.25"
     inkscape:showpageshadow="2"
     inkscape:pageopacity="0.0"
     inkscape:pagecheckerboard="0"
     inkscape:deskcolor="#d1d1d1"
     inkscape:zoom="2.71"
     inkscape:cx="149.8155"
     inkscape:cy="150"
     inkscape:window-width="1920"
     inkscape:window-height="1009"
     inkscape:window-x="-8"
     inkscape:window-y="-8"
     inkscape:window-maximized="1"
     inkscape:current-layer="svg2" />
  <rect
     width="300"
     height="300"
     fill="black"
     id="rect1" />
  <circle
     cx="150"
     cy="150"
     r="150"
     fill="#181818"
     id="circle1" />
  <path
     d="M150 20C150 8.9543 158.993 -0.137056 169.941 1.33137C184.731 3.31516 199.18 7.49993 212.799 13.7785C232.49 22.8562 249.979 36.095 264.061 52.5828C278.143 69.0705 288.483 88.4152 294.368 109.284C300.254 130.153 301.545 152.049 298.153 173.465C294.761 194.881 286.767 215.307 274.72 233.335C262.674 251.364 246.862 266.567 228.375 277.896C209.887 289.225 189.163 296.412 167.631 298.96C152.738 300.723 137.703 300.238 123.024 297.554C112.158 295.568 106.415 284.142 109.828 273.637L149.021 153.013C149.67 151.017 150 148.931 150 146.832L150 20Z"
     fill="#167c80"
     id="path1" />
  <circle
     cx="150"
     cy="150"
     r="128"
     fill="black"
     id="circle2" />
  <path
     d="M162.73 230.297L149.298 254.672C149.006 255.202 148.199 254.959 148.247 254.357L149.72 236.199L137.762 236.199C137.336 236.199 137.064 235.742 137.27 235.367L150.703 210.992C150.995 210.462 151.802 210.705 151.753 211.307L150.281 229.465L162.238 229.465C162.665 229.465 162.935 229.922 162.73 230.297Z"
     fill="white"
     id="path2" />
  <path
     style="fill:#2196f3;stroke-width:0.369004"
     d="m 143.72694,299.57788 c -10.96666,-0.38173 -21.23847,-1.88574 -24.93828,-3.65149 -7.64569,-3.64895 -11.50495,-13.26005 -8.83927,-22.01325 l 0.58384,-1.91712 1.74445,0.53826 c 6.46654,1.9953 15.20755,3.81428 23.14667,4.81679 7.1274,0.90001 21.97606,0.90343 29.1513,0.007 24.81562,-3.10127 46.65648,-12.2074 65.68265,-27.38512 4.9614,-3.95785 15.62705,-14.58104 19.4227,-19.34537 15.09469,-18.94698 23.88676,-39.5203 27.51776,-64.39115 0.92726,-6.35141 0.92726,-26.12091 0,-32.47232 -2.27154,-15.55909 -6.18567,-28.30809 -12.6318,-41.143914 C 257.86275,79.27017 250.14692,68.731683 239.43662,58.296225 216.88493,36.323241 188.95558,24.03674 157.09989,22.075182 l -7.10675,-0.437607 0.21951,-2.423954 c 0.68085,-7.518375 4.28344,-13.1375483 10.34275,-16.1322235 4.54703,-2.24726463 8.29859,-2.16191354 20.73076,0.4716424 59.23997,12.5490341 105.04102,59.7724061 116.08914,119.6941901 1.77794,9.643 2.21718,14.88767 2.22509,26.56827 0.008,11.7303 -0.45562,17.34399 -2.22442,26.93727 -4.44593,24.11309 -14.75644,46.98289 -29.72325,65.92934 -27.69013,35.05287 -69.07769,55.80202 -113.77818,57.04131 -1.82657,0.0507 -6.39299,-0.0148 -10.1476,-0.14554 z"
     id="path3" />
</svg>
