<?xml version="1.0" encoding="UTF-8" standalone="no"?>
<svg
   width="300"
   height="300"
   viewBox="0 0 300 300"
   fill="none"
   version="1.1"
   id="svg2"
   sodipodi:docname="battery_scale_13.svg"
   inkscape:version="1.3.2 (091e20e, 2023-11-25, custom)"
   xmlns:inkscape="http://www.inkscape.org/namespaces/inkscape"
   xmlns:sodipodi="http://sodipodi.sourceforge.net/DTD/sodipodi-0.dtd"
   xmlns="http://www.w3.org/2000/svg"
   xmlns:svg="http://www.w3.org/2000/svg">
  <defs
     id="defs2" />
  <sodipodi:namedview
     id="namedview2"
     pagecolor="#ffffff"
     bordercolor="#000000"
     borderopacity="0.25"
     inkscape:showpageshadow="2"
     inkscape:pageopacity="0.0"
     inkscape:pagecheckerboard="0"
     inkscape:deskcolor="#d1d1d1"
     inkscape:zoom="2.71"
     inkscape:cx="149.8155"
     inkscape:cy="150"
     inkscape:window-width="1920"
     inkscape:window-height="1009"
     inkscape:window-x="-8"
     inkscape:window-y="-8"
     inkscape:window-maximized="1"
     inkscape:current-layer="svg2" />
  <rect
     width="300"
     height="300"
     fill="black"
     id="rect1" />
  <circle
     cx="150"
     cy="150"
     r="150"
     fill="#181818"
     id="circle1" />
  <path
     d="M150 20C150 8.9543 158.993 -0.137085 169.941 1.33136C188.629 3.83801 206.738 9.85427 223.293 19.1256C245.686 31.666 264.486 49.7423 277.896 71.6252C291.306 93.5082 298.877 118.466 299.884 144.111C300.892 169.756 295.303 195.231 283.651 218.099C271.999 240.966 254.675 260.462 233.336 274.72C211.996 288.979 187.355 297.524 161.769 299.538C136.183 301.551 110.509 296.966 87.2011 286.221C69.9695 278.278 54.458 267.163 41.4457 253.518C33.8228 245.524 35.8917 232.905 44.8278 226.412L141.756 155.99C146.935 152.227 150 146.212 150 139.809L150 20Z"
     fill="#167c80"
     id="path1" />
  <circle
     cx="150"
     cy="150"
     r="128"
     fill="black"
     id="circle2" />
  <path
     d="M162.73 230.297L149.298 254.672C149.006 255.202 148.199 254.959 148.247 254.357L149.72 236.199L137.762 236.199C137.336 236.199 137.064 235.742 137.27 235.367L150.703 210.992C150.995 210.462 151.802 210.705 151.753 211.307L150.281 229.465L162.238 229.465C162.665 229.465 162.935 229.922 162.73 230.297Z"
     fill="white"
     id="path2" />
  <path
     style="fill:#2196f3;stroke-width:0.369004"
     d="M 136.53137,299.21872 C 104.45594,296.20016 74.595775,283.26339 50.553506,261.96922 45.139714,257.17424 40.370792,252.222 39.205028,250.1845 c -2.954395,-5.16362 -2.822552,-12.2035 0.330263,-17.63459 1.213573,-2.09052 2.865652,-3.94378 5.070728,-5.68822 l 1.801591,-1.42524 0.576498,0.84266 c 3.989198,5.83095 15.848159,18.17446 22.757589,23.68746 32.649393,26.05079 75.115863,34.59174 115.603893,23.25051 15.69993,-4.39776 31.60824,-12.63105 44.91271,-23.2444 4.9614,-3.95785 15.62705,-14.58104 19.4227,-19.34537 13.07265,-16.4089 22.03477,-35.4805 25.92363,-55.16606 2.00224,-10.13539 2.2406,-12.84394 2.2406,-25.46125 0,-12.61731 -0.23836,-15.32586 -2.2406,-25.46125 -2.75322,-13.93694 -8.57896,-28.80599 -16.1926,-41.328418 -14.84636,-24.418354 -38.32656,-43.674509 -65.40457,-53.638419 -11.4081,-4.197845 -23.62129,-6.678609 -36.90757,-7.496731 l -7.10675,-0.437607 0.21951,-2.423954 c 0.68548,-7.569428 4.24849,-13.1217184 10.35565,-16.1373252 l 2.86722,-1.4157792 4.6291,0.027311 c 5.41482,0.031946 13.56555,1.5554736 23.33948,4.3625931 54.56864,15.6723773 95.71573,61.1753653 105.97783,117.1968093 1.73644,9.47929 2.21356,15.23841 2.21639,26.75277 0.003,11.49248 -0.46154,17.06012 -2.23128,26.75277 -6.78196,37.14399 -27.35173,70.42261 -57.51464,93.04957 -22.46594,16.85301 -48.64058,26.86888 -76.93727,29.44048 -4.92481,0.44757 -21.533,0.4324 -26.38376,-0.0241 z"
     id="path3" />
</svg>
