<?xml version="1.0" encoding="UTF-8" standalone="no"?>
<svg
   width="300"
   height="300"
   viewBox="0 0 300 300"
   fill="none"
   version="1.1"
   id="svg2"
   sodipodi:docname="battery_scale_10.svg"
   inkscape:version="1.3.2 (091e20e, 2023-11-25, custom)"
   xmlns:inkscape="http://www.inkscape.org/namespaces/inkscape"
   xmlns:sodipodi="http://sodipodi.sourceforge.net/DTD/sodipodi-0.dtd"
   xmlns="http://www.w3.org/2000/svg"
   xmlns:svg="http://www.w3.org/2000/svg">
  <defs
     id="defs2" />
  <sodipodi:namedview
     id="namedview2"
     pagecolor="#ffffff"
     bordercolor="#000000"
     borderopacity="0.25"
     inkscape:showpageshadow="2"
     inkscape:pageopacity="0.0"
     inkscape:pagecheckerboard="0"
     inkscape:deskcolor="#d1d1d1"
     inkscape:zoom="2.71"
     inkscape:cx="149.8155"
     inkscape:cy="150"
     inkscape:window-width="1920"
     inkscape:window-height="1009"
     inkscape:window-x="-8"
     inkscape:window-y="-8"
     inkscape:window-maximized="1"
     inkscape:current-layer="svg2" />
  <rect
     width="300"
     height="300"
     fill="black"
     id="rect1" />
  <circle
     cx="150"
     cy="150"
     r="150"
     fill="#181818"
     id="circle1" />
  <path
     d="M150 20C150 8.9543 158.993 -0.137047 169.941 1.33137C182.784 3.05407 195.379 6.4376 207.403 11.4181C225.601 18.9563 242.137 30.0052 256.066 43.934C269.995 57.8628 281.044 74.3987 288.582 92.5975C296.12 110.796 300 130.302 300 150C300 169.698 296.12 189.204 288.582 207.403C281.044 225.601 269.995 242.137 256.066 256.066C242.137 269.995 225.601 281.044 207.402 288.582C195.379 293.562 182.784 296.946 169.941 298.669C158.993 300.137 150 291.046 150 280L150 150L150 20Z"
     fill="#167c80"
     id="path1" />
  <circle
     cx="150"
     cy="150"
     r="128"
     fill="black"
     id="circle2" />
  <path
     d="M162.73 230.297L149.298 254.672C149.006 255.202 148.199 254.959 148.247 254.357L149.72 236.199L137.762 236.199C137.336 236.199 137.064 235.742 137.27 235.367L150.703 210.992C150.995 210.462 151.802 210.705 151.753 211.307L150.281 229.465L162.238 229.465C162.665 229.465 162.935 229.922 162.73 230.297Z"
     fill="white"
     id="path2" />
  <path
     style="fill:#2196f3;stroke-width:0.369004"
     d="m 162.72581,297.86023 c -7.21975,-2.49653 -11.75322,-8.68831 -12.51513,-17.09309 l -0.22148,-2.4432 5.2637,-0.25856 c 27.99611,-1.37518 53.47693,-10.91883 75.0054,-28.0927 4.9614,-3.95785 15.62705,-14.58104 19.4227,-19.34537 13.07265,-16.4089 22.03477,-35.4805 25.92363,-55.16606 2.00224,-10.13539 2.2406,-12.84394 2.2406,-25.46125 0,-12.61731 -0.23836,-15.32586 -2.2406,-25.46125 -2.75322,-13.93694 -8.57896,-28.80599 -16.1926,-41.328418 -14.84636,-24.418354 -38.32656,-43.674509 -65.40457,-53.638419 -11.4081,-4.197845 -23.62129,-6.678609 -36.90757,-7.496731 l -7.10675,-0.437607 0.21951,-2.423954 c 0.68085,-7.518375 4.28344,-13.1375483 10.34275,-16.1322235 4.53958,-2.24358016 8.30416,-2.16047987 20.65808,0.4560112 23.70314,5.0201928 45.56652,15.6131163 64.60835,31.3030803 2.19652,1.809871 6.82085,6.127216 10.27629,9.594098 21.61158,21.683125 35.70625,48.594372 41.27785,78.812643 1.74806,9.48084 2.22571,15.22206 2.22571,26.75277 0,7.91123 -0.1704,12.14415 -0.65361,16.23616 -3.48061,29.47543 -14.229,55.11154 -32.87615,78.41329 -4.41889,5.52191 -14.71022,15.94535 -20.25009,20.51006 -20.75856,17.10451 -44.94663,28.17109 -71.28308,32.61361 -5.43292,0.91644 -9.33146,0.94519 -11.81294,0.0871 z"
     id="path3" />
</svg>
