<?xml version="1.0" encoding="UTF-8" standalone="no"?>
<svg
   width="300"
   height="300"
   viewBox="0 0 300 300"
   fill="none"
   version="1.1"
   id="svg2"
   sodipodi:docname="battery_scale_09.svg"
   inkscape:version="1.3.2 (091e20e, 2023-11-25, custom)"
   xmlns:inkscape="http://www.inkscape.org/namespaces/inkscape"
   xmlns:sodipodi="http://sodipodi.sourceforge.net/DTD/sodipodi-0.dtd"
   xmlns="http://www.w3.org/2000/svg"
   xmlns:svg="http://www.w3.org/2000/svg">
  <defs
     id="defs2" />
  <sodipodi:namedview
     id="namedview2"
     pagecolor="#ffffff"
     bordercolor="#000000"
     borderopacity="0.25"
     inkscape:showpageshadow="2"
     inkscape:pageopacity="0.0"
     inkscape:pagecheckerboard="0"
     inkscape:deskcolor="#d1d1d1"
     inkscape:zoom="2.71"
     inkscape:cx="149.8155"
     inkscape:cy="150"
     inkscape:window-width="1920"
     inkscape:window-height="1009"
     inkscape:window-x="-8"
     inkscape:window-y="-8"
     inkscape:window-maximized="1"
     inkscape:current-layer="svg2" />
  <rect
     width="300"
     height="300"
     fill="black"
     id="rect1" />
  <circle
     cx="150"
     cy="150"
     r="150"
     fill="#181818"
     id="circle1" />
  <path
     d="M150 20C150 8.9543 158.994 -0.137283 169.941 1.33108C198.42 5.15078 225.355 17.0964 247.417 35.9391C274.575 59.1345 292.566 91.2591 298.153 126.535C303.74 161.811 296.557 197.922 277.896 228.375C262.737 253.113 240.811 272.797 214.906 285.23C204.948 290.01 193.585 284.142 190.172 273.637L150.979 153.013C150.33 151.017 150 148.931 150 146.832L150 20Z"
     fill="#167c80"
     id="path1" />
  <circle
     cx="150"
     cy="150"
     r="128"
     fill="black"
     id="circle2" />
  <path
     d="M162.73 230.297L149.298 254.672C149.006 255.202 148.199 254.959 148.247 254.357L149.72 236.199L137.762 236.199C137.336 236.199 137.064 235.742 137.27 235.367L150.703 210.992C150.995 210.462 151.802 210.705 151.753 211.307L150.281 229.465L162.238 229.465C162.665 229.465 162.935 229.922 162.73 230.297Z"
     fill="white"
     id="path2" />
  <path
     style="fill:#2196f3;stroke-width:0.369004"
     d="m 203.50554,286.17386 c -2.69338,-0.77209 -3.65883,-1.23398 -5.97432,-2.8582 -2.61561,-1.83475 -4.71738,-4.37297 -6.20897,-7.49831 -1.82501,-3.82396 -1.9072,-3.67129 2.95819,-5.49443 13.07305,-4.89867 25.1854,-11.75071 35.97786,-20.35296 4.95652,-3.95064 15.62272,-14.57289 19.4227,-19.34265 15.09469,-18.94698 23.88676,-39.5203 27.51776,-64.39115 0.92726,-6.35141 0.92726,-26.12091 0,-32.47232 -2.27154,-15.55909 -6.18567,-28.30809 -12.6318,-41.143914 C 257.86275,79.27017 250.14692,68.731683 239.43662,58.296225 216.88493,36.323241 188.95558,24.03674 157.09989,22.075182 l -7.10675,-0.437607 0.21951,-2.423954 c 0.67924,-7.500555 4.27545,-13.1336011 10.27888,-16.1006555 4.61159,-2.27917091 8.31616,-2.20305665 20.72868,0.4258917 48.89325,10.3554978 89.6023,44.7699178 108.00687,91.3063128 4.02589,10.17956 6.76941,20.05157 8.53848,30.72398 1.54324,9.31009 1.85431,13.49645 1.84275,24.79985 -0.0117,11.47489 -0.45901,16.7605 -2.23268,26.38377 -8.58305,46.56855 -38.25162,86.09478 -80.60849,107.3914 -4.96131,2.49449 -9.3155,3.16091 -13.2616,2.02969 z"
     id="path3" />
</svg>
